<svg xmlns="http://www.w3.org/2000/svg" width="400" height="400" viewBox="0 0 400 400"><rect width="100%" height="100%" fill="#333333"/><path fill="#f5f5f5" d="M86.955 208.305h13.58v5.22h-19.9v-33.98h6.32zm32.15-18.89h5.8v24.11h-3.55q-1.15 0-1.46-1.06l-.39-1.92q-1.49 1.5-3.27 2.43-1.79.93-4.21.93-1.97 0-3.49-.67-1.51-.67-2.55-1.9-1.03-1.22-1.56-2.9t-.53-3.7v-15.32h5.81v15.32q0 2.21 1.02 3.42t3.06 1.21q1.51 0 2.82-.67 1.32-.67 2.5-1.84zm24.81 11.42 8.25 12.69h-5.59q-.64 0-1.02-.33-.39-.33-.65-.75l-5.1-8.39q-.12.4-.27.75t-.34.66l-4.51 6.98q-.26.4-.64.74-.37.34-.94.34h-5.19l8.27-12.43-7.94-11.68h5.59q.63 0 .94.18.31.17.54.57l5.05 8.04q.26-.8.73-1.58l4.07-6.34q.51-.87 1.34-.87h5.33zm15.84-2.14h10.95q0-1.13-.32-2.13-.31-.99-.95-1.75-.63-.75-1.61-1.18-.97-.44-2.26-.44-2.52 0-3.96 1.44-1.45 1.43-1.85 4.06m14.81 3.5h-14.93q.14 1.86.66 3.21t1.36 2.23q.85.88 2.01 1.32 1.17.43 2.58.43t2.43-.32q1.02-.33 1.79-.73.76-.4 1.33-.73.58-.33 1.12-.33.73 0 1.08.54l1.67 2.11q-.96 1.13-2.16 1.9-1.2.76-2.5 1.22-1.31.46-2.66.64-1.35.19-2.62.19-2.51 0-4.68-.83-2.16-.84-3.76-2.47-1.59-1.63-2.51-4.04t-.92-5.58q0-2.47.8-4.64.8-2.18 2.29-3.79t3.65-2.55q2.15-.94 4.85-.94 2.28 0 4.2.73 1.93.73 3.32 2.13 1.38 1.4 2.17 3.43t.79 4.64q0 1.32-.28 1.77-.29.46-1.08.46m41.78-22.65v5.19h-10.25v28.79h-6.32v-28.79h-10.24v-5.19zm14.22 9.49q2.68 0 4.87.87 2.2.87 3.76 2.47 1.57 1.6 2.41 3.9.85 2.3.85 5.15 0 2.86-.85 5.17-.84 2.3-2.41 3.92-1.56 1.62-3.76 2.49-2.19.87-4.87.87-2.71 0-4.92-.87-2.2-.87-3.77-2.49-1.56-1.62-2.42-3.92-.86-2.31-.86-5.17 0-2.85.86-5.15t2.42-3.9q1.57-1.6 3.77-2.47 2.21-.87 4.92-.87m0 20.38q3 0 4.45-2.02 1.44-2.02 1.44-5.93 0-3.9-1.44-5.94-1.45-2.05-4.45-2.05-3.06 0-4.53 2.06t-1.47 5.93q0 3.88 1.47 5.91 1.47 2.04 4.53 2.04m16.33-30.81h5.8v20h1.08q.59 0 .93-.16.34-.15.7-.62l5.99-7.4q.37-.49.83-.75t1.19-.26h5.31l-7.5 8.95q-.8 1.06-1.74 1.62.5.36.89.83.38.47.74 1.01l8.03 11.7h-5.24q-.68 0-1.17-.22-.5-.23-.82-.81l-6.16-9.15q-.33-.54-.68-.7-.36-.16-1.06-.16h-1.32v11.04h-5.8zm42.37 10.81h4.65l-13.13 30.74q-.26.61-.67.93-.42.31-1.26.31h-4.33l4.52-9.68-9.76-22.3h5.1q.69 0 1.07.33.39.33.58.75l5.12 12.5q.26.64.44 1.27.17.64.34 1.29l.42-1.3q.21-.65.47-1.28l4.84-12.48q.19-.47.62-.78.44-.3.98-.3m18.21-.38q2.68 0 4.88.87t3.76 2.47 2.41 3.9q.84 2.3.84 5.15 0 2.86-.84 5.17-.85 2.3-2.41 3.92t-3.76 2.49-4.88.87q-2.7 0-4.91-.87t-3.77-2.49-2.42-3.92q-.86-2.31-.86-5.17 0-2.85.86-5.15t2.42-3.9 3.77-2.47 4.91-.87m0 20.38q3.01 0 4.46-2.02 1.44-2.02 1.44-5.93 0-3.9-1.44-5.94-1.45-2.05-4.46-2.05-3.05 0-4.52 2.06t-1.47 5.93q0 3.88 1.47 5.91 1.47 2.04 4.52 2.04"/></svg>