<svg xmlns="http://www.w3.org/2000/svg" width="400" height="400" viewBox="0 0 400 400"><rect width="100%" height="100%" fill="#8b7d79"/><path fill="#f5f5f5" d="M106.03 187.17h3.66v26.03h-4.27v-16.81q0-1.01.11-2.18l-7.87 14.78q-.56 1.06-1.71 1.06h-.68q-1.15 0-1.71-1.06l-7.96-14.83q.06.59.09 1.17.04.57.04 1.06v16.81h-4.27v-26.03h3.66q.32 0 .55.02.24.02.43.09t.34.23q.15.17.3.44l7.79 14.45q.31.58.57 1.19t.51 1.26q.25-.67.52-1.29t.58-1.2l7.68-14.41q.15-.27.31-.44.16-.16.35-.23t.42-.09q.24-.02.56-.02m18.51 21.26v-3.11q-1.93.09-3.24.33-1.32.24-2.11.62t-1.13.88q-.35.51-.35 1.1 0 1.17.7 1.67.69.51 1.81.51 1.37 0 2.36-.5 1-.49 1.96-1.5m-9.4-9.7-.79-1.42q3.19-2.92 7.67-2.92 1.62 0 2.9.53 1.27.53 2.16 1.48.88.94 1.34 2.26.46 1.31.46 2.88v11.66h-2.02q-.63 0-.97-.19t-.54-.76l-.4-1.34q-.7.63-1.37 1.11-.66.48-1.38.8-.72.33-1.54.5t-1.81.17q-1.17 0-2.16-.32-.99-.31-1.71-.94t-1.12-1.57q-.39-.93-.39-2.18 0-.7.23-1.39t.77-1.32q.53-.63 1.37-1.19.85-.56 2.08-.97 1.24-.42 2.87-.68 1.64-.26 3.75-.31v-1.08q0-1.86-.8-2.75-.79-.89-2.28-.89-1.08 0-1.79.25t-1.25.57q-.54.31-.98.57-.45.25-.98.25-.47 0-.8-.25-.32-.24-.52-.56m18.06-4h4.46v18.47h-4.46zm5.07-5.38q0 .58-.23 1.08-.24.5-.62.88-.39.38-.91.6-.52.23-1.12.23-.57 0-1.09-.23-.51-.22-.89-.6t-.6-.88q-.23-.5-.23-1.08 0-.59.23-1.12.22-.52.6-.9.38-.37.89-.6.52-.22 1.09-.22.6 0 1.12.22.52.23.91.6.38.38.62.9.23.53.23 1.12m16.2 7.38-1.01 1.6q-.18.29-.37.41-.2.11-.51.11-.32 0-.69-.18t-.86-.4q-.48-.23-1.1-.41t-1.47-.18q-1.31 0-2.06.56t-.75 1.46q0 .59.39 1 .39.4 1.02.71.64.31 1.45.55t1.65.53 1.65.66 1.45.93q.64.57 1.02 1.36.39.79.39 1.91 0 1.33-.48 2.46-.47 1.12-1.41 1.94t-2.31 1.28q-1.38.46-3.18.46-.95 0-1.86-.17t-1.75-.48-1.55-.72-1.25-.9l1.03-1.69q.2-.31.47-.47t.68-.16.78.23q.37.24.86.51.48.27 1.14.5t1.67.23q.79 0 1.35-.19.57-.18.94-.49t.54-.71q.17-.41.17-.84 0-.65-.39-1.06-.38-.41-1.02-.72t-1.46-.55-1.67-.53q-.86-.29-1.68-.68-.82-.38-1.46-.98-.63-.59-1.02-1.45-.39-.87-.39-2.09 0-1.14.45-2.16.45-1.03 1.32-1.79.88-.77 2.18-1.23 1.31-.46 3.02-.46 1.91 0 3.47.63 1.57.63 2.61 1.66m11.72-2.29q2.05 0 3.73.67 1.69.67 2.88 1.89 1.2 1.22 1.85 2.99.65 1.76.65 3.94 0 2.2-.65 3.96t-1.85 3.01q-1.19 1.24-2.88 1.9-1.68.67-3.73.67-2.07 0-3.76-.67-1.69-.66-2.89-1.9-1.2-1.25-1.86-3.01-.65-1.76-.65-3.96 0-2.18.65-3.94.66-1.77 1.86-2.99t2.89-1.89 3.76-.67m0 15.61q2.3 0 3.41-1.55t1.11-4.53q0-2.99-1.11-4.56-1.11-1.56-3.41-1.56-2.34 0-3.47 1.57-1.12 1.58-1.12 4.55t1.12 4.52q1.13 1.56 3.47 1.56m16.36-14.51.31 1.46q.56-.56 1.18-1.04.62-.47 1.31-.81.69-.33 1.49-.52.79-.19 1.72-.19 1.52 0 2.69.52 1.17.51 1.95 1.44.78.92 1.19 2.21.4 1.29.4 2.84v11.75h-4.44v-11.75q0-1.7-.78-2.62-.77-.93-2.36-.93-1.15 0-2.16.52-1 .52-1.9 1.42v13.36h-4.45v-18.47h2.72q.86 0 1.13.81m30.75 13.88h4.89q1.35 0 2.27-.32.92-.33 1.47-.87t.79-1.26.24-1.53q0-.84-.27-1.52-.27-.67-.84-1.15-.58-.48-1.49-.73t-2.19-.25h-4.87zm4.12-18.5h-4.12v7.52h3.85q2.48 0 3.75-.9t1.27-2.86q0-2.04-1.15-2.9t-3.6-.86m-8.97-3.75h8.97q2.55 0 4.37.49 1.82.48 2.98 1.38t1.7 2.18.54 2.88q0 .92-.27 1.76-.27.83-.84 1.56-.56.73-1.44 1.33-.87.59-2.07 1 5.36 1.21 5.36 5.8 0 1.66-.63 3.06t-1.84 2.42q-1.2 1.02-2.97 1.59-1.76.58-4.03.58h-9.83zm26.52 14.67h8.39q0-.86-.25-1.63-.24-.76-.73-1.34-.48-.57-1.23-.91-.75-.33-1.74-.33-1.92 0-3.03 1.1t-1.41 3.11m11.34 2.68h-11.43q.11 1.43.5 2.46.4 1.04 1.05 1.71.64.68 1.53 1.01.9.33 1.98.33t1.86-.25 1.37-.56q.58-.3 1.02-.56.44-.25.86-.25.56 0 .83.42l1.27 1.62q-.73.86-1.65 1.44-.92.59-1.92.94t-2.03.5q-1.04.14-2.01.14-1.93 0-3.58-.64-1.66-.64-2.88-1.89-1.23-1.25-1.93-3.1-.7-1.84-.7-4.27 0-1.89.61-3.56.61-1.66 1.76-2.89 1.14-1.24 2.79-1.96 1.64-.72 3.71-.72 1.75 0 3.23.56 1.47.56 2.53 1.63 1.07 1.07 1.67 2.63t.6 3.55q0 1.01-.21 1.36-.22.35-.83.35m14.13 3.91v-3.11q-1.93.09-3.24.33-1.32.24-2.11.62t-1.13.88q-.34.51-.34 1.1 0 1.17.69 1.67.69.51 1.81.51 1.37 0 2.36-.5 1-.49 1.96-1.5m-9.4-9.7-.79-1.42q3.19-2.92 7.67-2.92 1.62 0 2.9.53 1.27.53 2.16 1.48.88.94 1.34 2.26.46 1.31.46 2.88v11.66h-2.02q-.63 0-.97-.19t-.54-.76l-.4-1.34q-.7.63-1.37 1.11-.66.48-1.38.8-.72.33-1.54.5t-1.81.17q-1.17 0-2.16-.32-.99-.31-1.71-.94t-1.12-1.57q-.39-.93-.39-2.18 0-.7.23-1.39.24-.69.77-1.32t1.37-1.19q.85-.56 2.08-.97 1.24-.42 2.87-.68 1.64-.26 3.75-.31v-1.08q0-1.86-.79-2.75-.8-.89-2.29-.89-1.08 0-1.79.25t-1.25.57q-.54.31-.98.57-.44.25-.98.25-.47 0-.8-.25-.32-.24-.52-.56m29.38-4h4.44v18.47h-2.71q-.89 0-1.12-.81l-.31-1.48q-1.13 1.16-2.5 1.87t-3.22.71q-1.51 0-2.67-.52-1.16-.51-1.96-1.44-.79-.94-1.19-2.23-.41-1.28-.41-2.83v-11.74h4.45v11.74q0 1.69.78 2.62.78.92 2.35.92 1.15 0 2.16-.51t1.91-1.41zm14.99 18.76q-2.41 0-3.7-1.36-1.28-1.36-1.28-3.75v-10.32h-1.89q-.36 0-.62-.23-.25-.24-.25-.7v-1.77l2.97-.48.94-5.04q.09-.36.34-.56t.65-.2h2.3v5.81h4.93v3.17h-4.93v10.01q0 .86.42 1.35.43.49 1.17.49.41 0 .69-.1t.48-.21q.21-.11.37-.21.17-.1.33-.1.2 0 .32.1.13.1.27.3l1.33 2.16q-.97.81-2.23 1.22-1.26.42-2.61.42m10.75-11.65h8.39q0-.86-.25-1.63-.24-.76-.73-1.34-.48-.57-1.23-.91-.75-.33-1.74-.33-1.92 0-3.03 1.1t-1.41 3.11m11.34 2.68h-11.43q.11 1.43.5 2.46.4 1.04 1.05 1.71.64.68 1.53 1.01.9.33 1.98.33t1.86-.25 1.37-.56q.58-.3 1.02-.56.44-.25.86-.25.56 0 .83.42l1.27 1.62q-.73.86-1.65 1.44-.92.59-1.92.94t-2.03.5q-1.04.14-2.01.14-1.93 0-3.58-.64-1.66-.64-2.88-1.89-1.23-1.25-1.93-3.1-.7-1.84-.7-4.27 0-1.89.61-3.56.61-1.66 1.76-2.89 1.14-1.24 2.79-1.96 1.64-.72 3.71-.72 1.75 0 3.23.56 1.47.56 2.53 1.63 1.07 1.07 1.67 2.63t.6 3.55q0 1.01-.21 1.36-.22.35-.83.35m-4.97-17.64h4.32l-4.45 4.7q-.34.36-.65.5-.32.13-.82.13h-2.67l2.56-4.37q.27-.47.63-.71.36-.25 1.08-.25"/></svg>